<?xml version="1.0" encoding="UTF-8"?>
<svg id="Layer_2" data-name="Layer 2" xmlns="http://www.w3.org/2000/svg" viewBox="0 0 73.08 75.89">
  <defs>
    <style>
      .cls-1 {
        fill: #252524;
      }

      .cls-1, .cls-2, .cls-3, .cls-4, .cls-5, .cls-6 {
        fill-rule: evenodd;
      }

      .cls-1, .cls-2, .cls-3, .cls-4, .cls-6 {
        stroke-width: 0px;
      }

      .cls-2 {
        fill: #2e2e2d;
      }

      .cls-3 {
        fill: #424241;
      }

      .cls-4 {
        fill: #343434;
      }

      .cls-5 {
        stroke: #000;
        stroke-miterlimit: 10;
        stroke-width: 4px;
      }

      .cls-6 {
        fill: #50504f;
      }
    </style>
  </defs>
  <g id="OBJECTS">
    <path class="cls-5" d="m70.66,18.48c-.85-3.55-2.11-4.37-3.53-4.6.03-1.01.01-1.98-.2-2.69.07-.04.14-.07.22-.11-.42-1.73-.91-4.55-1.94-5.95-2.89-3.95-4.84-2.32-8.87-2.37-9.77-.12-19.28-.48-29.09-.29-10.58.25-14.72-.54-15.83-.46-1.01.07-7.59,7.95-8.7,9.3l-.07.76-.14,1.6-.15,1.64c-.27,2.9-.21,5.52-.11,8.14-.58,6.99-.09,8.8.37,11.32-.06.1-.09.22-.05.36.25,1.06.39,2.05.48,3,.05.7.08,1.49.1,2.42-.06,2.78-.6,5.4-.91,8.6-.2,1.97-.12,3.42.21,4.64-.06.72-.13,1.45-.21,2.23-.57,5.73,1.09,7.01,4.86,11.26,2.49,2.78,2.24,3.51,5.06,3.79,1.55.15,3.09.29,4.64.43,11.43.98,22.29.99,33.6,1.64,2.82.16,8.58,1.11,10.85.65,6.92-1.41,6.04-11.42,7.38-16.42,1.29-4.81,2.79-21.38,2.37-29.11.15-4.29.08-7.97-.34-9.76Z"/>
    <g>
      <path class="cls-1" d="m61.47,73.77c-2.27.46-8.03-.48-10.85-.65-11.31-.65-22.18-.66-33.6-1.64-1.55-.13-3.1-.28-4.64-.43-2.82-.27-2.57-1.01-5.06-3.79-3.78-4.25-5.43-5.54-4.86-11.26,2.64-27.37-1.45-16.85.13-33.84l.15-1.64.14-1.6.07-.76c1.1-1.35,7.68-9.23,8.7-9.3,1.12-.08,5.26.71,15.83.46,9.8-.19,19.32.16,29.08.29,4.03.05,7.41-3.01,10.3.94,1.03,1.4.09,5.66.51,7.39-1.5.78-2.7,1.32-4.31,1.86,2.93,2.1,6.16-1.41,7.82,5.54,1.24,5.19-.54,26.45-2.03,32-1.34,5-.46,15.01-7.38,16.42Z"/>
      <path class="cls-4" d="m67.38,60.65c-.94,2.58-3.1,5.68-5.91,6.25-2.27.46-8.03-.48-10.85-.65-11.31-.65-22.18-.66-33.6-1.64-1.55-.13-3.1-.28-4.64-.42-2.82-.28-2.57-1.01-5.06-3.79-3.78-4.25-5.43-5.54-4.86-11.26.5-5.14,1.58-8.78.33-14.02-.19-.8,1.3-.97,2.27-1.37,1.37-.57,2.77-1.12,3.79-2.22-2.72.07-3.65-.04-6.27-.88.19-5.36-.5-9.84,0-15.34l.15-1.64.14-1.6.07-.76c1.1-1.35,7.68-9.23,8.7-9.3,1.12-.08,5.26.71,15.83.46,9.8-.19,19.32.16,29.08.29,4.03.05,5.98-1.58,8.87,2.37,1.03,1.4,1.52,4.22,1.94,5.95-1.5.78-2.7,1.32-4.31,1.86,2.93,2.1,6.16-1.41,7.82,5.54,1.24,5.19-.54,26.45-2.03,32-.12.44-.2.82-.52,1.14-3.59,1.6-8.68.04-4.48,2.4.47.27,3.91,1.75,3.92,2,.08,1.35-.03,3.34-.38,4.63Z"/>
      <path class="cls-3" d="m68.34,28.24c.04-1.08.06-2.15.07-3.23.01-1.66.05-4.26-.34-5.87-.09-.38-.57-2.29-1.08-2.41-.51-.12-1.3-.1-1.85-.15-1.39-.12-2.62-.49-3.77-1.32-.9-.65-1.33-1.67-1.17-2.77.16-1.1.88-1.95,1.94-2.3.66-.22,1.28-.46,1.9-.73-.27-1.07-.59-2.17-.94-2.65-.37-.5-1-1.34-1.68-1.45-.47-.08-1.13,0-1.61.05-1.11.11-2.17.22-3.29.21-9.66-.12-19.32-.5-28.98-.29-3.82.08-7.66.06-11.47-.17-1-.06-2-.14-3-.22-.18-.02-.38-.04-.58-.05-.34.31-.7.69-.95.96-.81.84-1.59,1.71-2.36,2.58-1.16,1.31-2.31,2.65-3.43,4l-.12,1.46s0,.01,0,.02l-.15,1.63c-.4,4.3.01,8.59.03,12.89.99.2,1.87.23,3.28.19,1.19-.03,2.22.62,2.7,1.7.49,1.08.29,2.28-.52,3.15-1.37,1.47-2.98,2.16-4.8,2.91-.06.02-.12.05-.18.07.44,2.92.24,5.42-.08,8.09,24.27,1.44,47.53-3.09,62.43-16.32Z"/>
      <g>
        <path class="cls-6" d="m26.53,5.37c-1.83,2.02-3.67,3.69-7.91,3.08-6.5-.93-6.7-1.96-8.6-.96.3-.34.61-.67.92-1.01,4.31-.21,10.43,2.92,13.98-.63.16-.16.32-.32.46-.47.38,0,.76,0,1.15-.02Z"/>
        <path class="cls-6" d="m5.41,16.14c8.45-2.2,8.21,2.29,18.3,3.27,3.79.37,7-3.49,10.64-5.56,13.52-7.67,17.19-1.09,25.82-.98,0,.21,0,.42.05.61-8.64-.25-13.72-5.64-23.09-.11-1.56.92-11.14,7.14-12.21,7.25-5.34.52-12.41-5.78-19.55-3.93.01-.18.03-.37.04-.55Z"/>
        <path class="cls-6" d="m5.48,27.5c12.7-.8,13.34,5.26,28.35-6.23,10.95-8.38,14.73-7.05,27.02-6.47.15.18.33.34.52.48.17.12.35.24.53.34-6.88-.62-13.41-1.67-22.12,2.79-8.2,4.2-12.2,11.94-23.45,10.57-4.49-.55-6.73-.85-10.84-.73,0-.25,0-.5,0-.75Z"/>
      </g>
      <g>
        <path class="cls-2" d="m36.85,65.67c1.25-.54,2.56-.49,3.96-.44,2.11.08,4.47.16,7.3-2.45,1.2-1.11,2.04-2.04,2.72-2.78l.03-.03c2.39-2.63,2.89-3.14,9.39-2.25,4.23.58,4.47.43,7.17-1.95.21.12.35.22.35.27.01.21.02.44.02.69-2.73,2.39-3.18,2.52-7.79,1.89-5.81-.8-6.24-.36-8.26,1.86l-.03.03c-.68.75-1.53,1.69-2.78,2.84-1.73,1.59-3.29,2.3-4.73,2.6-2.45-.1-4.9-.19-7.33-.28Z"/>
        <path class="cls-2" d="m28.4,65.34c7.79-7.3,12.52.98,18.65-7.21,5.49-7.34,11.38-1.98,17.61-3.71.36.17.79.37,1.22.57-1.91.63-3.87.89-5.79.59-16.62-2.6-8.08,6.92-20.51,7.28-6.51.19-8.43.83-10.13,2.53-.35-.02-.7-.03-1.05-.05Z"/>
      </g>
      <path class="cls-6" d="m64.37,59.7c.07-.27.12-.57.16-.9.04-.31.07-.63.08-.95-.23-.11-.45-.2-.66-.29-.57-.25-1.14-.5-1.66-.79-.28-.16-.56-.32-.84-.49-.28-.17-.55-.36-.81-.56-.61-.48-1.09-1.09-1.34-1.78-.23-.63-.27-1.33-.05-2.07.7-2.28,2.72-2.41,4.57-2.54h.15c.35-.03.71-.06,1.08-.11.3-.04.61-.08.9-.14.4-1.67.63-3.56.84-5.25l.03-.21c.19-1.52.36-3.04.5-4.57.15-1.51.28-3.04.39-4.59.12-1.58.22-3.16.29-4.72.07-1.58.12-3.16.13-4.73v-.21c.01-1.65.03-4.08-.33-5.6-.04-.18-.18-.74-.37-1.27-.17-.47-.36-.9-.5-.94-.31-.07-.75-.09-1.17-.11-.23,0-.46-.02-.64-.03-.71-.06-1.39-.19-2.04-.41-.65-.22-1.27-.53-1.87-.96-.49-.35-.86-.81-1.08-1.33s-.29-1.1-.2-1.7c.09-.6.33-1.13.7-1.56v-.02c.38-.42.85-.75,1.42-.94.33-.11.65-.23.95-.34.24-.09.47-.19.71-.29-.12-.46-.24-.91-.38-1.3-.15-.44-.3-.81-.46-1.03-.18-.25-.42-.57-.7-.84-.25-.25-.54-.46-.81-.5-.4-.07-.96,0-1.41.04h-.13c-.56.07-1.11.13-1.65.17-.54.04-1.1.06-1.67.06-2.89-.04-5.77-.1-8.66-.16-6.77-.14-13.54-.28-20.32-.13-1.91.04-3.83.06-5.74.04-1.93-.02-3.84-.09-5.75-.2-.51-.03-1.01-.06-1.51-.1-.52-.04-1.01-.08-1.5-.12l-.47-.04c-.25.23-.5.49-.7.71h0l-.15.16c-.4.41-.79.84-1.19,1.27-.41.45-.79.88-1.16,1.3-.57.64-1.14,1.3-1.73,1.98-.54.63-1.09,1.28-1.64,1.95l-.12,1.38v.02s-.15,1.63-.15,1.63c-.27,2.89-.17,5.78-.07,8.68.05,1.32.09,2.64.1,3.96.4.07.8.12,1.23.14.51.03,1.08.03,1.78,0,.65-.02,1.25.15,1.76.47.51.32.93.79,1.19,1.38.27.59.35,1.21.25,1.81-.1.6-.37,1.16-.81,1.63-.71.76-1.47,1.31-2.3,1.78-.81.45-1.67.82-2.57,1.19.48,3.38.11,6.19-.29,9.38-.14,1.08-.28,2.21-.4,3.42-.07.69-.12,1.44-.08,2.18.04.72.16,1.43.45,2.05.55,1.19,1.9,2.66,2.99,3.84.27.29.52.56.72.79.56.63,1.09,1.29,1.62,1.95.06.07.12.15.17.22.11.14.28.36.39.45.08.03.22.05.37.07.19.03.36.04.45.05.78.08,1.55.15,2.31.22.68.06,1.44.13,2.3.2,6.72.58,13.43.82,20.14,1.06,4.46.16,8.93.32,13.38.58,1.2.07,2.4.2,3.6.34.55.06,1.1.12,1.59.17l.34.04c1.28.13,3.5.36,4.5.16.65-.13,1.28-.63,1.84-1.27.76-.88,1.37-2,1.69-2.84h0Zm.7-.84c-.04.35-.1.68-.17.98v.03c-.35.89-1,2.09-1.81,3.02-.63.72-1.35,1.29-2.14,1.45-1.09.22-3.36-.01-4.66-.15l-.34-.04c-.56-.06-1.08-.11-1.6-.17-1.19-.13-2.39-.27-3.57-.34-4.46-.26-8.92-.42-13.37-.58-6.73-.24-13.46-.48-20.16-1.06-.68-.06-1.45-.13-2.31-.21-.78-.07-1.55-.14-2.3-.22-.11,0-.3-.03-.48-.05-.21-.03-.41-.07-.54-.13-.02,0-.04-.02-.05-.03-.15-.12-.37-.39-.51-.57-.06-.07-.12-.15-.17-.22-.53-.65-1.04-1.3-1.61-1.93-.22-.25-.46-.51-.72-.79-1.11-1.2-2.5-2.71-3.08-3.97-.32-.69-.46-1.47-.5-2.25-.04-.77.02-1.54.09-2.26.12-1.21.26-2.35.4-3.44.41-3.21.77-6.04.26-9.44-.02-.12.05-.25.17-.29l.08-.03.08-.03c.9-.37,1.75-.73,2.54-1.17.78-.44,1.5-.96,2.17-1.67.37-.4.6-.86.68-1.36.08-.49.01-1.01-.21-1.5-.22-.49-.57-.88-.99-1.15-.42-.27-.92-.4-1.46-.39-.72.02-1.3.02-1.83,0-.54-.03-1.02-.09-1.52-.19h0c-.12-.03-.21-.13-.22-.26,0-1.38-.05-2.78-.1-4.17-.1-2.91-.2-5.82.07-8.75l.15-1.63.13-1.48c0-.05.03-.11.06-.15.55-.67,1.12-1.34,1.7-2.02.57-.66,1.14-1.32,1.73-1.99.4-.45.79-.89,1.17-1.31.39-.43.79-.86,1.2-1.28l.15-.16h0c.23-.24.52-.54.8-.8.05-.06.13-.09.22-.09l.29.03c.08,0,.15.01.29.03.51.04,1.02.08,1.5.12.51.04,1.01.07,1.5.1,1.91.11,3.82.18,5.72.2,1.91.02,3.82,0,5.73-.03,6.78-.15,13.56,0,20.34.13,2.89.06,5.77.12,8.66.16.54,0,1.08-.02,1.63-.05.55-.04,1.08-.1,1.63-.15h.13c.48-.06,1.08-.13,1.55-.05.41.07.78.33,1.1.65.3.3.56.65.75.91.19.26.37.68.54,1.17.16.48.31,1.03.45,1.57.03.13-.03.26-.16.31-.31.13-.62.26-.94.38-.33.13-.65.24-.98.35-.47.16-.87.42-1.17.77v.02c-.31.36-.51.8-.59,1.3-.07.5-.01.98.17,1.41.18.43.48.81.89,1.1.55.4,1.12.68,1.72.88.6.2,1.24.32,1.91.38.2.02.4.02.61.03.44.02.91.03,1.28.12.37.09.67.67.89,1.28.2.55.34,1.14.39,1.33.38,1.58.36,4.05.35,5.72v.21c-.01,1.59-.06,3.17-.14,4.75-.07,1.6-.17,3.18-.29,4.74-.11,1.52-.24,3.05-.39,4.6-.15,1.53-.32,3.06-.51,4.59l-.03.21c-.22,1.75-.47,3.72-.89,5.45-.02.1-.09.19-.2.22-.37.09-.75.15-1.13.19-.37.04-.74.07-1.1.1h-.15c-1.67.12-3.5.25-4.09,2.17-.19.61-.15,1.2.04,1.73.21.59.63,1.11,1.17,1.53.24.19.5.36.77.53.27.17.55.33.82.48.49.28,1.05.52,1.61.76.29.13.59.26.84.37.09.05.16.14.15.26-.02.4-.05.8-.09,1.17Z"/>
    </g>
  </g>
</svg>