<?xml version="1.0" encoding="UTF-8"?>
<svg id="Layer_2" data-name="Layer 2" xmlns="http://www.w3.org/2000/svg" viewBox="0 0 61.8 87.12">
  <defs>
    <style>
      .cls-1 {
        stroke-width: 2px;
      }

      .cls-1, .cls-2, .cls-3, .cls-4, .cls-5, .cls-6, .cls-7 {
        fill-rule: evenodd;
      }

      .cls-1, .cls-6 {
        stroke: #000;
        stroke-miterlimit: 10;
      }

      .cls-2 {
        fill: #252524;
      }

      .cls-2, .cls-3, .cls-4, .cls-5, .cls-7 {
        stroke-width: 0px;
      }

      .cls-3 {
        fill: #2e2e2d;
      }

      .cls-4 {
        fill: #424241;
      }

      .cls-5 {
        fill: #343434;
      }

      .cls-6 {
        stroke-width: 4px;
      }

      .cls-7 {
        fill: #50504f;
      }
    </style>
  </defs>
  <g id="OBJECTS">
    <path class="cls-6" d="m57.78,16.06c-.35-.49-5.96-3.32-6.05-3.36-.71-.24-.67-2.64-3.67-3.59-8.19-2.6-28.3-.37-31.43-.21-2.63-.23-2.63-1.26-5.74.63-4.67,2.85-4.82,6-5.29,11.21-.28,3.08-.47,3.54-1.13,6.48-.8,3.57-.38,3.22,3.23,4.81,2.92,1.29,1.12.14-2.18,1.23-2.5.83-1.7.09-1.92,3.68-.25,3.84-2.49,32.64-1.24,34.84,1.14,1.99,5.5,7.88,7.33,8.51,4.22,1.46,9.01-1.56,13.7,1.23,4.26,2.54,11.26,2.85,16.28,3.38,5.44.57,4.56.34,9.21-3.64,2.68-2.3,6.52-4.93,3.94-9-2.42-3.81-8.8-2.29-1.89-3.41,5.13-.83,2.94-2.71,3.46-8.18.49-5.2,1.57-10.75,2.53-15.91.16-.83.32-1.66.48-2.49,1.04-5.22,2.36-7.83-3.48-9.78-2.55-.85,4.07.29,4.99-1.49.29-.56.32-5.49.51-6.85.55-3.94.8-4.51-1.65-8.09Z"/>
    <path class="cls-1" d="m57.78,9.2c-.35-.49-5.96-3.32-6.05-3.36-.71-.24-.67-2.64-3.67-3.59-8.19-2.6-28.3-.37-31.43-.21-2.63-.23-2.63-1.26-5.74.63-4.67,2.85-4.82,6-5.29,11.21-.28,3.08-.47,3.54-1.13,6.48-.8,3.57-.38,3.22,3.23,4.81,2.92,1.29,1.12.13-2.18,1.23-2.5.83-1.7.09-1.92,3.68-.55,8.78-1.2,17.39-1.65,26.21-.11,2.17-.23,4.34-.35,6.51-.17,3.05.47,2.86,2.39,5.82,4.79,7.36,4.11,6.51,14.88,6.13,3.55-.12,4.33,2.23,8.28,2.77,1.93.25,15.76,1.52,16.69,1.04,1.1-.57,9.04-7.33,9.4-8.41.55-1.64.41-3.82-.74-5.14-2.99-3.45-8.81-1.57-.6-3.15,3.41-.66,2.24-2.19,2.34-5.67.13-4.58,1.8-13.52,2.69-18.3.16-.83.32-1.66.48-2.48,1.04-5.22,2.36-7.83-3.48-9.78-2.55-.85,4.07.29,4.99-1.49.29-.56.32-5.49.51-6.85.55-3.94.8-4.51-1.65-8.09Z"/>
    <path class="cls-2" d="m57.78,16.06c-.35-.49-5.96-3.32-6.05-3.36-.71-.24-.67-2.64-3.67-3.59-8.19-2.6-28.3-.37-31.43-.21-2.63-.23-2.63-1.26-5.74.63-4.67,2.85-4.82,6-5.29,11.21-.28,3.08-.47,3.54-1.13,6.48-.8,3.57-.38,3.22,3.23,4.81,2.92,1.29,1.12.14-2.18,1.23-2.5.83-1.7.09-1.92,3.68-.25,3.84-2.49,32.64-1.24,34.84,1.14,1.99,5.5,7.88,7.33,8.51,4.22,1.46,9.01-1.56,13.7,1.23,4.26,2.54,11.26,2.85,16.28,3.38,5.44.57,4.56.34,9.21-3.64,2.68-2.3,6.52-4.93,3.94-9-2.42-3.81-8.8-2.29-1.89-3.41,5.13-.83,2.94-2.71,3.46-8.18.49-5.2,1.57-10.75,2.53-15.91.16-.83.32-1.66.48-2.49,1.04-5.22,2.36-7.83-3.48-9.78-2.55-.85,4.07.29,4.99-1.49.29-.56.32-5.49.51-6.85.55-3.94.8-4.51-1.65-8.09Z"/>
    <path class="cls-5" d="m57.78,9.2c-.35-.49-5.96-3.32-6.05-3.36-.71-.24-.67-2.64-3.67-3.59-8.19-2.6-28.3-.37-31.43-.21-2.63-.23-2.63-1.26-5.74.63-4.67,2.85-4.82,6-5.29,11.21-.28,3.08-.47,3.54-1.13,6.48-.8,3.57-.38,3.22,3.23,4.81,2.92,1.29,1.12.13-2.18,1.23-2.5.83-1.7.09-1.92,3.68-.55,8.78-1.2,17.39-1.65,26.21-.11,2.17-.23,4.34-.35,6.51-.17,3.05.47,2.86,2.39,5.82,4.79,7.36,4.11,6.51,14.88,6.13,3.55-.12,4.33,2.23,8.28,2.77,1.93.25,15.76,1.52,16.69,1.04,1.1-.57,9.04-7.33,9.4-8.41.55-1.64.41-3.82-.74-5.14-2.99-3.45-8.81-1.57-.6-3.15,3.41-.66,2.24-2.19,2.34-5.67.13-4.58,1.8-13.52,2.69-18.3.16-.83.32-1.66.48-2.48,1.04-5.22,2.36-7.83-3.48-9.78-2.55-.85,4.07.29,4.99-1.49.29-.56.32-5.49.51-6.85.55-3.94.8-4.51-1.65-8.09Z"/>
    <path class="cls-4" d="m55.65,11.19c-.64-.43-1.54-.87-2.18-1.21-.93-.5-1.9-1.01-2.85-1.47-2.26-.88-1.6-2.93-3.43-3.51-3.68-1.17-9.45-1.16-13.31-1.1-3.55.06-7.09.26-10.63.52-2.14.16-4.32.39-6.46.51h-.2s-.2,0-.2,0c-.68-.06-1.33-.17-1.99-.33-.17-.04-.45-.12-.63-.14-.33.07-1.1.53-1.37.69-1.2.73-2.27,1.6-2.87,2.9-.76,1.67-.88,4.28-1.05,6.1-.11,1.21-.24,2.42-.47,3.61-.21,1.08-.48,2.16-.72,3.24-.05.2-.12.51-.18.81.59.26,1.34.53,1.76.72.36.16.73.31,1.09.46.15.06.3.13.44.2.18.09.35.19.5.31.9.68,1.33,1.81,1.09,2.93-.5,2.33-2.1,2.22-3.66,2.33-.62.04-1.24.16-1.83.35,0,.38,0,.76-.03,1.15-.39,6.17-.83,12.33-1.21,18.5,18.21.42,35.5-2.72,48.68-10.63l.14-.77c.16-.84.32-1.68.48-2.52.17-.86,1.07-4.44.79-5.19-.2-.52-1.91-1.14-2.36-1.29-.27-.09-.54-.19-.8-.31-.25-.12-.48-.27-.69-.44-.8-.67-1.2-1.72-1.02-2.76.53-2.98,3.49-2.37,5.48-2.55.08,0,.18-.02.29-.03.04-.63.05-1.31.07-1.83.05-1.15.06-2.42.22-3.55.45-3.18.74-3.25-.93-5.7Z"/>
    <g>
      <path class="cls-3" d="m30.72,77.88c.34-5.91,2.47-6.38,4.95-6.91,1.78-.39,3.78-.82,5.27-4.07.63-1.38,1.03-2.5,1.35-3.39l.02-.04c1.12-3.17,1.36-3.8,7.08-4.32,3.29-.3,3.78-.5,4.87-2.61,0,.67.04,1.27.07,1.79-.89,1.29-1.86,1.49-4.85,1.76-5.11.47-5.32,1-6.27,3.69v.04c-.33.91-.73,2.03-1.39,3.47-1.69,3.69-3.93,4.17-5.94,4.61-2.09.45-3.89.84-4.2,6.07-.33-.03-.64-.06-.95-.09Z"/>
      <path class="cls-3" d="m24.24,76.63c.23-.58.41-1.03.49-1.24,3.98-11.46,11.27-2.83,13.78-12.94,2.29-9.18,9.76-3.88,14.36-8.33.59-.58,1.16-1.21,1.7-1.88-.08.66-.15,1.29-.2,1.88-1.68,1.62-3.62,2.74-5.84,2.9-14.72,1.03-4.44,8.74-14.69,11.83-7.7,2.32-7.2,3.52-8.7,8.17-.33-.12-.63-.25-.91-.39Z"/>
    </g>
    <g>
      <path class="cls-7" d="m26.63,4.19c-4.02,2.42-3.81,7.56-9.32,6.98-6.62-.7-4.49-2.11-8.7,1.54l.02-.26c1.82-6.08,9.7.79,13.21-3.82,1.55-2.04,2.17-3.21,3.72-4.38.36-.02.71-.05,1.07-.07Z"/>
      <path class="cls-7" d="m7.88,18.45c6.14-2.31,6.14,1.6,13.61,1.98,2.8.14,5.01-3.35,7.61-5.31,12.53-9.43,13.78,2.71,25.83-4.37.26.14.5.29.72.43l.08.11c-.35.16-.71.33-1.03.49-10.8,5.56-14.88-4-23.57,2.79-1.11.87-7.92,6.7-8.7,6.84-3.94.7-9.45-4.51-14.66-2.45.04-.17.08-.35.11-.52Z"/>
      <path class="cls-7" d="m11.17,28.06c6.81-.11,8.4,2.99,17.83-6.49,8.72-8.76,11.21-6.39,23.46-6.95,1.91-.09,3.3-.3,4.46-.73.02.27,0,.56-.04.91-.47.16-.86.28-1.11.32-7.75,1.32-13.76-2.27-22.5,3.7-5.87,4.02-8.51,10.91-16.84,10.24-3.73-.3-5.37-.46-9.17,0-.28.04-.52.09-.74.14v-.09c.6-.19,1.21-.31,1.83-.35,1.03-.07,2.09-.04,2.82-.7Z"/>
    </g>
    <path class="cls-7" d="m55.46,11.38c-.48-.32-1.12-.65-1.67-.93-.16-.08-.32-.16-.45-.23h-.02s-.21-.12-.21-.12c-.85-.45-1.72-.92-2.61-1.34h0c-1.26-.5-1.67-1.32-2.04-2.08-.3-.61-.59-1.18-1.35-1.42-1.82-.58-4.16-.86-6.52-1-2.38-.14-4.78-.12-6.71-.09-1.76.03-3.54.09-5.31.18-1.76.09-3.53.2-5.3.34-.8.06-1.64.13-2.48.21-1.32.12-2.65.23-3.99.3h-.2s-.02.01-.04,0l-.2-.02c-.34-.03-.68-.08-1.02-.13-.34-.06-.67-.13-1.01-.21l-.16-.04c-.13-.03-.28-.07-.39-.09-.14.04-.37.15-.59.28-.27.15-.52.3-.65.37-.59.36-1.14.75-1.61,1.2-.47.45-.87.97-1.15,1.58-.64,1.4-.82,3.54-.96,5.26-.02.21-.03.41-.06.76-.06.63-.12,1.24-.19,1.82-.07.6-.17,1.21-.28,1.82-.15.76-.32,1.52-.5,2.28-.08.36-.16.71-.22.97l-.05.2c-.03.12-.06.25-.09.39.26.11.56.23.84.34h.02c.27.12.52.22.7.3h0c.33.14.59.26.86.37l.23.09c.08.03.16.07.23.1.08.04.16.07.23.11.09.05.18.1.28.16.09.06.18.12.27.18.49.37.86.87,1.06,1.43.21.55.26,1.16.13,1.77-.5,2.35-1.99,2.43-3.53,2.52-.12,0-.23.01-.37.02-.3.02-.6.06-.89.12-.23.04-.46.1-.69.17,0,.13,0,.25,0,.38,0,.2-.01.4-.02.59-.19,3-.39,5.97-.59,8.94-.38,5.75-.77,11.5-1.06,17.23-.06,1.09-.11,2.17-.17,3.26-.06,1.1-.12,2.19-.18,3.26h0c-.01.24-.06,1.05.02,1.24.07.15.23.38.36.55l.07.1c.23.31.46.63.73,1.01.24.34.48.69.7,1.03.11.17.2.32.31.49.8,1.27,2.39,3.76,3.21,4.18.24.12.62.19,1,.23.4.04.81.04,1.11.04,1.39,0,2.83-.07,4.25-.14.74-.04,1.48-.07,2.24-.1.89-.03,1.72.04,2.51.23.8.19,1.57.48,2.35.89.34.17.67.36.98.54.93.53,1.73.98,2.97,1.14,2.23.3,4.6.48,6.89.65l1.16.09c.83.06,1.65.12,2.45.18.82.05,1.65.1,2.45.14.15,0,.29.02.44.02.55.03,1.2.07,1.74.05.29-.22.6-.47.88-.7l.27-.22c.47-.38.94-.77,1.41-1.17.48-.4.94-.8,1.39-1.19.44-.39.88-.77,1.3-1.15.43-.39.86-.79,1.27-1.18h0s.17-.17.17-.17h0c.29-.28.65-.62.92-.93.06-.32.08-.71.04-1.06-.04-.28-.11-.54-.25-.69-.21-.24-.47-.44-.75-.6-.29-.16-.6-.29-.92-.39-.31-.1-.62-.17-.93-.24-1.48-.33-2.94-.65-2.98-3.15-.02-1.27.45-2.05,1.16-2.54h.02c.68-.48,1.55-.68,2.39-.82.51-.09,1.05-.18,1.6-.28.5-.09.99-.18,1.47-.27v-.17c-.04-.41-.07-.82-.08-1.25-.02-.42-.02-.84,0-1.26.04-1.61.21-3.29.42-4.95.22-1.67.48-3.33.74-4.91.24-1.48.5-2.97.77-4.47.27-1.51.54-2.99.82-4.46.09-.46.17-.88.24-1.26.09-.44.17-.86.25-1.26.03-.13.08-.39.16-.71.3-1.33.85-3.79.65-4.33-.05-.12-.29-.29-.59-.46h-.01c-.57-.32-1.32-.59-1.59-.68-.14-.05-.28-.09-.42-.15h0c-.14-.05-.28-.11-.41-.18-.14-.07-.27-.14-.39-.21-.12-.08-.25-.17-.36-.26-.44-.37-.77-.84-.96-1.36-.19-.52-.25-1.08-.15-1.65.47-2.66,2.65-2.7,4.58-2.73.4,0,.79-.01,1.14-.04h0s.06,0,.06,0c.02-.33.03-.65.04-.96,0-.23.01-.45.02-.64.01-.26.02-.51.03-.76.03-.94.07-1.92.2-2.82.06-.42.11-.74.15-1.03.32-2.1.37-2.41-1.01-4.44h0Zm-1.42-1.41c.57.3,1.24.65,1.76.99.03.02.05.04.07.07,1.53,2.25,1.48,2.57,1.13,4.86-.05.32-.1.68-.15,1.02-.12.87-.16,1.84-.19,2.76,0,.26-.02.53-.03.76,0,.2-.01.41-.02.63-.01.39-.03.81-.05,1.19,0,.13-.1.25-.24.26l-.3.03h0c-.37.03-.77.04-1.18.04-1.72.03-3.67.06-4.06,2.28-.08.47-.04.94.12,1.37.16.43.43.83.8,1.13.1.08.2.15.31.22.11.07.22.13.33.19.12.06.25.11.37.16.13.05.26.1.39.14.29.09,1.07.38,1.68.71h.02c.4.23.73.48.83.75.26.69-.32,3.25-.63,4.64-.06.28-.11.51-.15.7-.09.44-.17.86-.25,1.26-.09.46-.17.88-.24,1.26-.28,1.5-.55,3-.82,4.46-.26,1.48-.52,2.96-.77,4.46-.26,1.58-.52,3.24-.74,4.89-.21,1.65-.37,3.31-.42,4.9-.01.41,0,.82.01,1.23.01.4.04.81.07,1.24l.03.39c.02.14-.08.27-.22.29l-.11.02c-.55.11-1.08.2-1.6.3-.51.09-1.05.18-1.61.28-.78.13-1.58.31-2.17.72h-.01c-.57.41-.95,1.04-.93,2.1.04,2.07,1.28,2.35,2.56,2.63.33.07.67.15.98.25.35.11.7.25,1.02.44.33.19.63.42.89.72.21.24.33.6.38.98.05.43.02.91-.05,1.29,0,.05-.03.09-.06.13-.29.34-.69.72-1.01,1.02,0,0-.16.15-.17.17h0c-.43.41-.85.8-1.28,1.19-.44.4-.87.78-1.3,1.16-.47.41-.94.81-1.4,1.2-.46.39-.93.78-1.42,1.18l-.27.22c-.3.25-.64.53-.97.76-.04.03-.1.05-.15.06-.58.02-1.29-.02-1.87-.05l-.43-.02c-.83-.04-1.65-.09-2.46-.14-.84-.06-1.65-.12-2.46-.18l-1.16-.09c-2.29-.17-4.67-.35-6.92-.65-1.34-.18-2.18-.65-3.16-1.21-.29-.17-.6-.34-.96-.52-.75-.38-1.48-.66-2.23-.84-.75-.18-1.53-.25-2.37-.22-.73.02-1.48.06-2.23.1-1.42.07-2.86.14-4.28.14-.31,0-.74,0-1.16-.04-.44-.04-.88-.12-1.2-.28-.95-.49-2.59-3.07-3.42-4.37-.14-.22-.26-.4-.31-.48-.23-.35-.46-.69-.69-1.01-.21-.3-.46-.64-.72-1l-.07-.1c-.14-.19-.33-.45-.43-.66-.13-.3-.08-1.21-.06-1.48h0c.06-1.1.12-2.19.18-3.26.06-1.09.12-2.17.17-3.26.3-5.77.68-11.5,1.06-17.24.2-2.99.4-5.98.59-8.94.01-.2.02-.38.02-.56,0-.19,0-.37,0-.55,0-.12.07-.23.19-.27.31-.1.63-.18.94-.24.31-.06.63-.1.96-.12.11,0,.25-.02.38-.02,1.33-.07,2.61-.15,3.03-2.09.11-.5.07-1.01-.11-1.47-.17-.46-.48-.88-.89-1.19-.07-.05-.15-.1-.22-.15-.07-.05-.15-.09-.24-.13-.07-.04-.14-.07-.21-.1-.08-.03-.15-.06-.22-.09l-.23-.1c-.31-.13-.62-.26-.87-.37-.19-.08-.43-.18-.69-.28h-.02c-.33-.14-.69-.28-1.04-.43-.13-.04-.2-.17-.18-.31.04-.21.09-.43.14-.62l.05-.2c.09-.39.16-.68.22-.97.17-.75.35-1.51.49-2.26.11-.59.2-1.18.27-1.78.08-.62.14-1.22.19-1.8.01-.14.04-.44.06-.75.14-1.76.32-3.95,1.01-5.44.32-.69.75-1.25,1.27-1.75.51-.49,1.09-.9,1.71-1.27.14-.08.41-.25.67-.39.28-.15.57-.29.77-.34.03,0,.06,0,.09,0,.15.02.35.07.52.11.04,0,.08.02.15.04.33.08.65.15.97.2.32.05.64.1.98.13l.19.02h.18c1.29-.08,2.63-.19,3.97-.31.82-.07,1.64-.14,2.49-.21,1.76-.13,3.53-.24,5.32-.33,1.77-.09,3.54-.15,5.33-.18,1.94-.03,4.36-.05,6.74.09,2.41.14,4.79.43,6.65,1.02.98.31,1.32.98,1.67,1.69.33.67.69,1.4,1.76,1.82.01,0,.02,0,.04.01.86.41,1.76.89,2.63,1.35l.21.11h.02c.14.09.29.16.44.24Z"/>
  </g>
</svg>