<?xml version="1.0" encoding="UTF-8"?>
<svg id="Layer_2" data-name="Layer 2" xmlns="http://www.w3.org/2000/svg" viewBox="0 0 72.94 76.62">
  <defs>
    <style>
      .cls-1 {
        fill: #252524;
      }

      .cls-1, .cls-2, .cls-3, .cls-4, .cls-5, .cls-6 {
        fill-rule: evenodd;
      }

      .cls-1, .cls-2, .cls-3, .cls-4, .cls-6 {
        stroke-width: 0px;
      }

      .cls-2 {
        fill: #2e2e2d;
      }

      .cls-3 {
        fill: #424241;
      }

      .cls-4 {
        fill: #343434;
      }

      .cls-5 {
        stroke: #000;
        stroke-miterlimit: 10;
        stroke-width: 4px;
      }

      .cls-6 {
        fill: #50504f;
      }
    </style>
  </defs>
  <g id="OBJECTS">
    <path class="cls-5" d="m70.94,45.71c0-.08,0-.16,0-.24,0-.31,0-.62,0-.94,0-.06,0-.13,0-.19,0-.84-.02-1.72-.04-2.64,0,0,0,0,0,0,0-.07,0-.13,0-.2-.02-.54-.04-1.08-.06-1.64,0-.09,0-.18,0-.27,0,0,0,0,0,0-.35-7.98-1.39-17.57-2.33-21.04-.12-.44-.2-.82-.52-1.14-.2-.09-.41-.17-.63-.24-.07-.7-.17-1.37-.32-1.92-.19-.51-.43-1.05-.71-1.58.61-.3,1.08-.56,1.09-.66.08-1.35-.03-3.34-.38-4.63-.94-2.57-3.1-5.68-5.91-6.25-2.26-.46-8.03.48-10.84.65-11.31.65-22.18.66-33.6,1.64-1.55.13-3.1.28-4.64.43-2.82.27-2.57,1.01-5.06,3.79-3.77,4.25-5.43,5.54-4.86,11.26.07.73.15,1.42.24,2.1-.36,1.25-.44,2.72-.24,4.76.27,2.26.51,3.9.66,5.48-.08.54-.18,1.1-.32,1.68-.08.33.13.55.47.73.03,1.05.01,2.19-.06,3.56-.2.06-.4.12-.62.19.19,5.36-.5,9.84,0,15.34v.1c.07,4.7.33,10.15,1.38,11.65,1.65,2.36,6.41,8.48,9.35,8.73,4.12.34,9.75-.04,14.33.15,10.89.45,21.7.3,32.59-.23,4.57-.24,6.16-3.83,6.8-7.9.16-1-.93-1.47-2.07-1.75.15-.18.3-.37.45-.58.21-.29.39-.64.56-1.03,5.65-1.68,5.25-7.09,5.21-12.44,0-.64-.02-1.32-.03-2.02.06-.79.1-1.7.11-2.7,0,0,0,0,0,0Z"/>
    <g>
      <path class="cls-1" d="m67.43,15.24c-.94-2.57-3.1-5.68-5.91-6.25-2.26-.46-8.03.48-10.84.65-11.31.65-22.18.66-33.6,1.64-1.55.13-3.1.28-4.64.43-2.82.27-2.57,1.01-5.06,3.79-3.77,4.25-5.43,5.54-4.86,11.26.63,5.19,1.06,7.14.67,12.5-.34,4.81,3.54,1.5,5.7,4.96-2.49.95-6.29-1.08-6.24,2.94.04,3.38-.3,15.91,1.39,18.32,1.65,2.36,6.41,8.48,9.35,8.73,4.12.34,9.75-.04,14.33.15,10.89.45,21.7.3,32.59-.23,4.57-.24,6.16-3.83,6.8-7.9.45-2.81-8.93-1.47-1.61-3.19,6.26-1.47,5.81-7.08,5.77-12.6-.05-7.15-.76-18.3-2.35-25.03-.12-.44-.2-.82-.52-1.14-3.59-1.6-8.68-.04-4.49-2.4.47-.27,3.91-1.76,3.92-2,.08-1.35-.03-3.34-.38-4.63Z"/>
      <path class="cls-4" d="m67.43,8.38c-.94-2.57-3.1-5.68-5.91-6.25-2.26-.46-8.03.48-10.84.65-11.31.65-22.18.66-33.6,1.64-1.55.13-3.1.28-4.64.43-2.82.27-2.57,1.01-5.06,3.79-3.77,4.25-5.43,5.54-4.86,11.26.5,5.14,1.58,8.78.33,14.02-.19.8,1.3.97,2.27,1.38,1.37.57,2.76,1.12,3.79,2.22-2.72-.07-3.66.04-6.27.88.19,5.36-.5,9.84,0,15.34l.15,1.64.14,1.6.07.76c1.1,1.35,7.68,9.23,8.7,9.3,1.11.08,5.26-.71,15.83-.46,9.8.19,19.32-.16,29.08-.29,4.03-.05,5.98,1.58,8.87-2.37,1.02-1.4,1.52-4.22,1.94-5.96-1.5-.78-2.7-1.32-4.31-1.86,2.93-2.1,6.16,1.41,7.82-5.54,1.24-5.19-.54-26.45-2.03-32-.12-.44-.2-.82-.52-1.14-3.59-1.6-8.68-.04-4.49-2.4.47-.27,3.91-1.75,3.92-2,.08-1.35-.03-3.34-.38-4.63Z"/>
      <path class="cls-3" d="m64.68,9.25c-.58-1.51-2.07-3.96-3.73-4.3-1.15-.23-3.72.07-4.92.19-1.72.17-3.46.41-5.18.51-11.17.65-22.37.68-33.52,1.64-1.54.13-3.07.27-4.61.42-.2.02-.74.07-.93.16-.15.12-.42.47-.54.61-.57.7-1.12,1.39-1.71,2.06-1.12,1.26-3.06,3.17-3.76,4.69-.6,1.32-.52,2.96-.39,4.37.47,4.82,1.36,8.35.66,12.94.06.02.12.04.17.07,1.81.75,3.43,1.44,4.8,2.91.81.87,1.01,2.07.52,3.15-.49,1.08-1.52,1.73-2.7,1.7-.26,0-.5-.01-.72-.01,22.66,4.04,44.52,1.83,59.55-10.3-.15-1.57-.32-3.13-.52-4.69-.23-1.8-.48-3.85-.92-5.65-.72-.17-1.48-.23-2.19-.28-1.8-.12-3.82-.2-4.48-2.36-.43-1.41.2-2.69,1.3-3.55.5-.39,1.08-.72,1.62-1.03.75-.42,1.64-.76,2.46-1.15-.03-.74-.12-1.5-.27-2.1Z"/>
      <g>
        <path class="cls-2" d="m49.36,66.4c.4-3.47,2.15-4.05,4.13-4.7,1.73-.57,3.67-1.21,4.81-4.6.48-1.44.76-2.59.98-3.52v-.04c.79-3.27.97-3.92,6.6-5.05,3.71-.74,3.79-.96,4.96-4.19.14-.4.3-.83.48-1.32.02.96.02,1.88,0,2.73-1.02,2.68-1.5,2.96-5.27,3.71-5.03,1.01-5.19,1.56-5.85,4.33v.04c-.23.93-.5,2.1-1.01,3.6-1.29,3.85-3.47,4.56-5.42,5.21-1.61.53-3.04,1.01-3.45,3.78l-.98.02Z"/>
        <path class="cls-2" d="m43.27,66.52c2.9-10.76,10.75-3.5,12.16-13.59,1.3-9.37,9.29-4.89,13.4-9.8.89-1.07,1.69-2.29,2.4-3.55.03.72.06,1.42.08,2.11-1.68,2.42-3.79,4.3-6.48,4.78-14.52,2.58-3.49,9.16-13.35,13.31-6.03,2.54-6.74,3.77-7.34,6.71l-.86.02Z"/>
      </g>
      <g>
        <path class="cls-6" d="m25.07,6.75c-2.01,2.14-3.59,4.19-8.44,3.81-3.63-.28-5.32-.68-6.42-.81.15-.18.31-.37.46-.55,4.1.19,9.2,1.65,12.1-1.17.46-.44.85-.84,1.22-1.21.36-.02.73-.04,1.09-.06Z"/>
        <path class="cls-6" d="m5.29,17.49c6.92-1.49,7.5,1.98,16.99,2.34,3.8.14,6.79-3.35,10.31-5.31,16.01-8.9,18.41,1.42,32.35-3.35,0,.06,0,.12.01.18-.82.38-1.71.72-2.46,1.15l-.17.1c-11.12,2.08-16.64-4.59-26.99,1.38-1.51.87-10.72,6.7-11.78,6.84-4.94.65-11.69-3.77-18.26-2.8,0-.18,0-.35,0-.53Z"/>
        <path class="cls-6" d="m6.25,27.52c11.03-.68,12.53,3.58,26.2-6.56,10.8-8.02,14.55-6.71,27.8-6.86-.18.21-.33.43-.46.66-6.76-.23-13.25-.75-21.56,3.45-7.95,4.02-11.52,10.91-22.79,10.24-3.85-.23-6.05-.38-9.16-.23,0-.23-.02-.46-.03-.69Z"/>
      </g>
      <path class="cls-6" d="m64.42,9.32c-.33-.84-.93-1.96-1.69-2.84-.55-.64-1.19-1.14-1.83-1.27-1.01-.21-3.22.02-4.51.16l-.34.04c-.5.05-1.04.11-1.59.17-1.2.13-2.4.27-3.6.34-4.45.26-8.91.42-13.38.58-6.71.24-13.42.48-20.13,1.06-.86.07-1.63.14-2.31.2-.75.07-1.52.14-2.3.22-.09,0-.27.03-.46.05-.14.02-.29.05-.37.07-.11.1-.29.32-.4.46-.05.07-.11.14-.17.21-.53.66-1.06,1.32-1.62,1.95-.21.23-.46.5-.72.79-1.08,1.18-2.44,2.65-2.99,3.84-.29.62-.41,1.33-.45,2.05-.04.73.01,1.49.08,2.18.12,1.22.26,2.34.4,3.42.41,3.19.77,6,.29,9.38.91.38,1.77.74,2.57,1.19.82.46,1.59,1.02,2.3,1.78.44.47.72,1.04.82,1.63.1.6.02,1.22-.25,1.81-.27.59-.68,1.06-1.19,1.38-.51.32-1.12.49-1.76.47-.7-.02-1.27-.02-1.79,0-.43.02-.82.07-1.23.14-.01,1.33-.06,2.64-.1,3.96-.1,2.9-.2,5.79.07,8.68.05.55.12,1.11.15,1.66h0l.12,1.38c.55.66,1.1,1.31,1.64,1.95.58.68,1.16,1.34,1.73,1.98.37.42.75.85,1.16,1.3.39.43.79.86,1.19,1.27l.16.17c.21.21.45.47.69.69l.47-.04c.49-.04.98-.08,1.5-.12.49-.04.99-.07,1.51-.1,1.91-.11,3.82-.18,5.75-.2,1.92-.02,3.83,0,5.75.03,6.77.15,13.54,0,20.32-.13,2.88-.06,5.77-.12,8.66-.16.57,0,1.12.02,1.67.06.54.04,1.09.09,1.65.15h.13c.44.06,1.01.12,1.41.06.28-.05.56-.25.81-.5.27-.27.52-.6.7-.84.16-.22.31-.58.47-1.03.13-.39.26-.85.37-1.31-.23-.1-.47-.19-.71-.29-.31-.12-.62-.23-.96-.34-.57-.19-1.06-.52-1.42-.96h0c-.36-.43-.6-.97-.7-1.56-.09-.6-.01-1.18.21-1.7.22-.52.58-.98,1.08-1.33.6-.43,1.22-.74,1.87-.96.65-.22,1.32-.35,2.04-.41.17-.02.4-.02.64-.03.42-.02.86-.03,1.17-.11.14-.03.34-.47.5-.94.19-.53.33-1.09.37-1.27.36-1.51.34-3.95.33-5.6v-.21c-.01-1.57-.06-3.15-.14-4.73-.07-1.57-.17-3.14-.29-4.72-.11-1.54-.24-3.07-.39-4.59-.15-1.53-.32-3.06-.51-4.57l-.03-.21c-.21-1.69-.45-3.57-.84-5.25-.3-.06-.6-.11-.9-.14-.37-.04-.73-.07-1.08-.1h-.15c-1.85-.14-3.87-.28-4.57-2.55-.22-.73-.18-1.43.05-2.07.25-.69.73-1.3,1.34-1.77.26-.2.54-.39.82-.56.28-.17.56-.34.84-.49.51-.29,1.08-.54,1.65-.79.22-.09.43-.19.66-.29-.02-.32-.05-.64-.09-.95-.04-.33-.09-.63-.16-.9h0Zm-1.29-3.19c.8.92,1.44,2.11,1.79,3,0,.02.01.03.02.05.07.3.13.63.17.98.05.37.08.76.1,1.15.01.11-.05.23-.16.28-.25.12-.54.25-.84.37-.56.24-1.11.49-1.61.76-.27.15-.55.31-.82.48-.27.17-.53.34-.77.53-.53.42-.95.94-1.17,1.53-.19.53-.23,1.11-.04,1.73.59,1.92,2.42,2.05,4.09,2.16h.15c.36.04.73.06,1.1.11.38.04.76.1,1.12.19.1.02.18.1.2.2.42,1.74.67,3.71.89,5.47l.03.21c.19,1.53.36,3.06.51,4.59.15,1.55.28,3.08.39,4.6.12,1.56.22,3.14.29,4.74.07,1.58.12,3.16.13,4.75v.21c.01,1.68.03,4.15-.34,5.72-.05.19-.19.78-.39,1.33-.22.61-.52,1.19-.89,1.28-.36.09-.84.1-1.28.12-.21,0-.42.02-.61.03-.68.06-1.31.18-1.92.38-.6.2-1.17.49-1.72.88-.41.29-.71.67-.89,1.1-.18.43-.24.91-.17,1.41.08.5.28.94.58,1.3h0c.3.36.7.63,1.18.79.33.11.65.23.98.35.32.12.62.25.93.38.13.05.21.18.17.32-.13.54-.28,1.09-.44,1.57-.17.49-.35.91-.54,1.17-.19.26-.45.61-.76.91-.32.32-.7.59-1.1.65-.47.08-1.08.01-1.55-.04h-.13c-.55-.07-1.08-.12-1.63-.16-.54-.04-1.08-.06-1.63-.05-2.88.04-5.77.1-8.65.16-6.78.14-13.56.28-20.34.13-1.91-.04-3.82-.06-5.73-.03-1.9.02-3.81.08-5.72.2-.49.03-.99.06-1.5.1-.48.04-.99.08-1.5.12-.14.01-.22.02-.29.03l-.29.03h0c-.07,0-.15-.02-.2-.07-.28-.25-.56-.55-.8-.8l-.16-.17c-.41-.43-.81-.85-1.2-1.28-.38-.41-.77-.85-1.17-1.31-.59-.67-1.17-1.33-1.73-1.99-.58-.68-1.15-1.35-1.7-2.01-.04-.04-.06-.1-.07-.16l-.13-1.46h0l-.15-1.65c-.27-2.93-.17-5.83-.07-8.75.05-1.38.09-2.77.1-4.15-.01-.13.08-.26.22-.29.5-.1.98-.16,1.52-.19.53-.03,1.11-.02,1.83,0,.54.01,1.04-.13,1.46-.39.42-.27.77-.66.99-1.15.22-.49.29-1.01.21-1.5-.08-.49-.31-.96-.68-1.35-.66-.71-1.39-1.24-2.17-1.67-.79-.44-1.64-.8-2.54-1.17l-.08-.03-.07-.03c-.13-.04-.21-.16-.19-.3.51-3.4.15-6.23-.26-9.44-.14-1.09-.29-2.23-.41-3.44-.07-.71-.12-1.49-.08-2.26.04-.78.18-1.56.5-2.25.58-1.27,1.97-2.77,3.08-3.98.25-.28.49-.54.72-.78.57-.63,1.08-1.28,1.61-1.93l.16-.2c.14-.17.35-.45.51-.57.02-.02.04-.03.07-.04.12-.05.33-.1.54-.12.18-.03.37-.04.48-.06.76-.07,1.52-.15,2.31-.22.86-.08,1.63-.15,2.3-.21,6.7-.57,13.43-.82,20.16-1.06,4.45-.16,8.9-.32,13.37-.58,1.18-.07,2.38-.2,3.57-.34.52-.06,1.04-.12,1.6-.17l.34-.03c1.31-.14,3.58-.37,4.67-.15.78.16,1.51.72,2.13,1.45Z"/>
    </g>
  </g>
</svg>