<?xml version="1.0" encoding="UTF-8"?>
<svg id="Layer_2" data-name="Layer 2" xmlns="http://www.w3.org/2000/svg" viewBox="0 0 66.6 78.94">
  <defs>
    <style>
      .cls-1 {
        fill: #252524;
      }

      .cls-1, .cls-2, .cls-3, .cls-4, .cls-5, .cls-6 {
        fill-rule: evenodd;
      }

      .cls-1, .cls-2, .cls-3, .cls-4, .cls-6 {
        stroke-width: 0px;
      }

      .cls-2 {
        fill: #2e2e2d;
      }

      .cls-3 {
        fill: #424241;
      }

      .cls-4 {
        fill: #343434;
      }

      .cls-5 {
        stroke: #000;
        stroke-miterlimit: 10;
        stroke-width: 4px;
      }

      .cls-6 {
        fill: #50504f;
      }
    </style>
  </defs>
  <g id="OBJECTS">
    <path class="cls-5" d="m64.11,54.21c.2-.65.32-1.35.37-2.14h0s0-.07,0-.1c.01-.24.02-.49.01-.74,0-.03,0-.05,0-.07h0c-.01-.63-.07-1.32-.16-2.09,0,0,0,0,0,0-.02-.16-.04-.32-.07-.48-.36-2.5-.73-2.71-.92-2.9-.03-.46-.02-1,0-1.6.05-.38.13-.86.22-1.48.03-.19-.03-.34-.13-.46.07-1.3.13-2.7.1-4.05-.07-2.64-.21-5.43-.4-8.03-.18-5.52-.35-11.84-.83-15.31l-.22-1.63-.21-1.59-.1-.75c-1.05-1.28-7.29-8.75-8.19-8.76-.99-.01-4.61,1.04-13.96,1.45-8.67.42-17.06,1.36-25.68,2.1-3.56.3-5.37-1.21-7.71,2.92-.83,1.47-1.11,4.32-1.38,6.08.04.02.07.04.11.05-.18.74-.19,1.75-.16,2.81-1.15.37-2.12,1.37-2.65,4.76-.21,1.37-.18,3.84,0,6.82,0,.02,0,.03,0,.05-.81,5.27,2.51,26.23,3.55,31.89l1.85,10.08c.5,2.71,3.05,5.49,5.57,5.88,2.03.32,7.07-.98,9.55-1.32,9.96-1.36,19.56-2.04,29.6-3.73,1.36-.23,2.72-.47,4.08-.71,2.48-.45,2.22-1.17,4.26-4.1,3.1-4.48,4.49-5.87,3.67-11.57-.06-.42-.11-.83-.16-1.23Z"/>
    <g>
      <path class="cls-1" d="m8.04,70.37c.5,2.71,3.05,5.49,5.57,5.88,2.03.32,7.07-.98,9.55-1.32,9.96-1.36,19.56-2.04,29.6-3.73,1.36-.23,2.72-.47,4.08-.71,2.48-.45,2.22-1.17,4.26-4.1,3.1-4.48,4.49-5.87,3.67-11.57-.48-3.38-.38-6.27-2.78-7.21-7.08-2.76-.23-1.37,1.88-2.3-.15-1.74.24-4.93.17-7.85-.15-6.03-.73-12.79-1.24-16.48l-.22-1.63-.21-1.59-.1-.75c-1.05-1.28-7.29-8.75-8.19-8.76-.99-.01-4.61,1.04-13.96,1.45-8.67.42-17.06,1.36-25.68,2.1-3.56.3-6.42-2.54-8.75,1.59-.83,1.47-.06,5.66-.34,7.41,1.37.68,2.46,1.15,3.91,1.59-2.47,2.29-5.51-1.02-6.6,6.03-.81,5.27,2.51,26.23,3.55,31.89l1.85,10.08Z"/>
      <path class="cls-4" d="m8.04,63.51c.97,2.52,3.05,5.49,5.57,5.89,2.03.32,7.07-.98,9.55-1.32,9.96-1.36,19.56-2.04,29.6-3.73,1.36-.23,2.72-.47,4.08-.71,2.48-.45,2.22-1.17,4.26-4.1,3.1-4.48,4.49-5.87,3.67-11.57-.73-5.11-1.51-.66-.7-5.98.12-.82-1.2-.89-2.08-1.23-1.24-.48-2.5-.94-3.47-1.98,2.41-.1,3.23-.27,5.49-1.27-.46-5.35-.46-17.9-1.21-23.38l-.22-1.63-.21-1.59-.1-.75c-1.05-1.28-7.29-8.75-8.19-8.76-.99-.01-4.61,1.04-13.96,1.45-8.67.42-17.06,1.36-25.68,2.1-3.56.3-5.37-1.21-7.71,2.92-.83,1.47-1.11,4.32-1.38,6.08,1.37.68,2.46,1.15,3.91,1.59-2.47,2.29-5.51-1.02-6.6,6.03-.81,5.27,1.93,26.42,3.55,31.89.13.43.22.81.53,1.11,3.26,1.38,7.67-.5,4.09,2.12-.4.29-3.36,2-3.36,2.25,0,1.35.21,3.34.59,4.61Z"/>
      <path class="cls-3" d="m8.49,12.19c.51.21,1.03.39,1.58.56,1.02.31,1.74,1.08,1.97,2.11.24,1.04-.07,2.04-.85,2.76-.97.9-2.08,1.39-3.37,1.63-.5.09-1.17.12-1.63.25h0c-.35.43-.64,2-.71,2.47-.26,1.71-.08,4.22.02,5.95.19,3.15.51,6.31.89,9.44.37,3.06.79,6.12,1.3,9.17.3,1.8.63,3.82,1.12,5.61.21.03.41.05.63.06,20.65-3.41,39.4-11.09,51.25-23.81-.02-.86-.05-1.73-.08-2.58-.07-2.13-.15-4.26-.27-6.39-.09-1.63-.19-3.3-.42-4.92l-.22-1.63s0-.01,0-.02l-.2-1.53c-1.06-1.27-2.14-2.54-3.24-3.78-.72-.82-1.45-1.63-2.21-2.42-.21-.22-.48-.51-.76-.78-.11.02-.22.04-.33.06-.89.15-1.78.29-2.67.41-3.34.46-6.71.72-10.07.87-8.54.39-17.04,1.36-25.56,2.09-1,.08-1.95.05-2.94,0-.36-.02-.93-.06-1.28.02-.45.1-1.03,1.11-1.22,1.45-.32.56-.56,1.78-.74,2.93Z"/>
      <g>
        <path class="cls-6" d="m10.34,7.84c5.8,1.09,5.58,4.77,13.83,8.22,3.52,1.47,7.71-1.28,11.81-2.18,14.84-3.28,16.67,3.7,24.42,6.48.01.22.02.43.03.65-7.91-2.85-11.25-9.25-21.67-6.77-1.76.42-12.75,3.55-13.8,3.34-4.68-.96-9.1-7.5-15.22-9.14.19-.26.4-.49.59-.59Z"/>
        <path class="cls-6" d="m7.46,19.31c9.23,3.08,9.73,7.46,25.83,1.5,12.73-4.72,16.05-2.47,27.2,1.58.01.25.02.51.03.76-5.93-2.46-11.7-4.91-20.71-3.32-9.07,1.6-15.17,7.83-25.52,3.21-3.41-1.52-5.41-2.43-8.23-3.32.04-.08.09-.16.13-.21h0c.35-.1.83-.14,1.26-.2Z"/>
      </g>
      <g>
        <path class="cls-2" d="m41.27,65.94c1.47-3.45,3.6-3.8,6.03-4.2,2.08-.34,4.41-.73,6.67-3.85.96-1.32,1.6-2.4,2.12-3.26l.03-.04c1.82-3.05,2.21-3.65,8.76-4.06h.12c0,.31,0,.62-.02.91h-.18c-5.85.38-6.19.89-7.73,3.47l-.02.04c-.52.87-1.17,1.95-2.17,3.33-2.56,3.54-5.17,3.97-7.52,4.36-1.92.32-3.63.6-4.89,3.15-.4.05-.8.1-1.2.14Z"/>
        <path class="cls-2" d="m33.53,66.82c.3-.46.53-.81.64-.99,6.5-11.03,13.22-2.54,17.84-12.28,3.08-6.5,7.95-5.38,12.69-6.01.02.13.04.27.06.41.02.16.05.33.07.48-.18.02-.36.03-.54.04-16.8.74-6.55,8.38-18.67,11.19-8.58,1.99-8.76,3.14-10.86,7.02l-1.23.14Z"/>
      </g>
      <path class="cls-6" d="m8.79,12.01c.19.07.37.14.57.21.25.09.52.18.8.26.55.17,1.03.46,1.4.86h0c.37.39.63.89.76,1.45.13.57.11,1.12-.05,1.64-.16.52-.46.99-.88,1.38-.51.47-1.05.83-1.63,1.11-.58.28-1.2.47-1.87.59-.21.04-.44.07-.67.09-.3.03-.61.07-.85.13-.09.15-.18.41-.27.71-.17.59-.29,1.29-.34,1.57-.25,1.59-.1,3.89,0,5.59l.02.31c.1,1.58.23,3.15.37,4.72.15,1.55.33,3.13.52,4.71.19,1.54.38,3.07.6,4.58.21,1.53.45,3.05.7,4.57l.04.26c.28,1.67.59,3.5,1.02,5.15.49.06,1,.06,1.51.07,1.8.02,3.6.03,4.49,2.13.5,1.18.3,2.18-.24,3.03-.51.82-1.33,1.49-2.12,2.07-.45.33-.94.61-1.44.9-.19.11-.37.22-.55.33.03.36.08.73.14,1.07.06.35.13.69.21.99.29.71.89,1.84,1.6,2.7.48.58.99,1.02,1.47,1.1.77.12,2.88-.27,3.87-.46l.19-.04c.41-.08.89-.17,1.38-.27,1.06-.21,2.12-.42,3.19-.57,3.93-.54,7.86-.97,11.79-1.41,5.92-.66,11.83-1.32,17.71-2.31.64-.11,1.31-.22,2.02-.35.77-.13,1.43-.25,2.02-.36h.02c.12-.03.33-.06.48-.11.1-.13.21-.31.3-.46l.07-.12c.22-.35.44-.7.67-1.06.23-.35.46-.7.7-1.05.33-.48.63-.9.91-1.29,1.97-2.76,2.82-3.94,2.23-8.04v-.08c-.06-.35-.14-.91-.25-1.28-.44-.53-.66-1.12-.76-1.74-.09-.55-.07-1.12-.01-1.7-.8-.31-1.55-.62-2.25-1.01-.77-.43-1.49-.95-2.16-1.67-.43-.46-.7-1-.81-1.58-.1-.58-.04-1.18.2-1.76.24-.58.62-1.06,1.1-1.39.48-.34,1.06-.53,1.69-.56.57-.02,1.03-.05,1.43-.1.32-.04.6-.09.87-.15-.13-2.19-.19-4.42-.25-6.64-.03-.97-.05-1.94-.09-2.9-.03-1.06-.07-2.12-.11-3.19-.04-1.06-.09-2.12-.15-3.19-.05-.8-.09-1.62-.16-2.46-.06-.83-.15-1.64-.25-2.44-.14-1.03-.28-2.06-.42-3.09-.52-.63-1.04-1.24-1.55-1.84-.55-.64-1.09-1.26-1.63-1.87-.34-.39-.7-.79-1.09-1.22-.37-.41-.74-.81-1.11-1.19l-.15-.15c-.15-.16-.33-.35-.51-.52l-.19.03c-.48.08-.93.15-1.34.21-.42.07-.87.13-1.34.2-1.68.23-3.36.41-5.04.55-1.67.14-3.36.24-5.06.32-5.99.27-11.95.83-17.91,1.39-2.59.24-5.19.49-7.64.69-.5.04-.99.06-1.5.05-.5,0-.98-.03-1.48-.05h-.14c-.34-.02-.8-.05-1.07.01-.15.03-.36.27-.55.53-.22.3-.41.62-.5.79h0c-.14.27-.27.68-.38,1.17-.11.45-.2.96-.28,1.46h0Zm.39.72c-.26-.09-.53-.19-.79-.3-.11-.05-.18-.17-.16-.29.09-.59.2-1.19.32-1.71.13-.53.27-.99.44-1.3v-.02c.11-.17.31-.52.54-.84.26-.35.57-.67.87-.74.34-.08.85-.05,1.22-.03h.13c.5.03.98.05,1.46.06.47,0,.95,0,1.45-.05,2.64-.22,5.14-.46,7.64-.69,5.97-.56,11.94-1.12,17.94-1.4,1.67-.08,3.35-.18,5.04-.32,1.69-.14,3.36-.32,5.02-.55.42-.06.86-.12,1.33-.19.49-.07.92-.14,1.33-.21l.32-.06c.08-.01.17.01.23.07.22.21.44.44.62.63l.14.15c.39.4.76.8,1.12,1.2.35.38.72.8,1.09,1.22.56.63,1.1,1.26,1.63,1.88.55.64,1.09,1.28,1.61,1.9.03.04.05.08.06.14.14,1.06.28,2.11.43,3.17.11.82.19,1.65.26,2.47.06.81.11,1.65.16,2.47.06,1.06.11,2.12.15,3.2.04,1.06.08,2.13.12,3.2.03.96.06,1.93.09,2.91.06,2.27.12,4.57.26,6.84,0,.12-.07.24-.2.28-.38.11-.75.17-1.17.22-.41.05-.88.07-1.48.1-.52.02-1,.19-1.4.46-.4.28-.71.67-.91,1.16-.2.48-.25.99-.17,1.46.09.48.31.93.67,1.31.63.68,1.31,1.17,2.03,1.57.73.4,1.51.72,2.37,1.05.12.04.2.16.19.29-.07.6-.11,1.2-.01,1.76.09.54.29,1.05.67,1.51.03.03.05.07.06.11.13.42.21,1.03.27,1.42v.08c.62,4.31-.26,5.55-2.32,8.43-.28.39-.59.82-.91,1.28-.23.34-.46.68-.69,1.04-.22.34-.44.7-.66,1.06l-.07.11c-.11.18-.26.43-.39.58-.03.03-.06.06-.11.08-.19.07-.48.12-.64.15h-.02c-.76.14-1.44.26-2.02.37-.64.11-1.31.23-2.02.35-5.89.99-11.81,1.65-17.74,2.31-3.93.44-7.87.88-11.77,1.41-1.04.14-2.1.35-3.16.56-.44.09-.87.17-1.38.27l-.19.04c-1.02.19-3.19.6-4.05.46-.63-.1-1.26-.62-1.81-1.28-.75-.91-1.39-2.11-1.69-2.86v-.03c-.1-.32-.18-.68-.24-1.06-.07-.42-.12-.85-.15-1.27-.01-.1.03-.2.12-.26.23-.14.47-.28.71-.42.48-.28.97-.57,1.39-.87.74-.55,1.52-1.18,1.99-1.92.45-.71.62-1.54.2-2.54-.75-1.77-2.37-1.79-4-1.8-.6,0-1.2,0-1.76-.09h0c-.1-.02-.19-.09-.22-.2-.47-1.73-.79-3.64-1.08-5.37l-.04-.26c-.26-1.52-.49-3.05-.7-4.58-.22-1.54-.42-3.07-.6-4.6-.19-1.55-.36-3.12-.51-4.72-.15-1.58-.28-3.16-.38-4.74l-.02-.31c-.11-1.72-.25-4.06,0-5.7.04-.29.17-1.02.35-1.63.11-.39.25-.75.4-.95.04-.05.09-.09.16-.11h0c.3-.09.66-.13,1.02-.17.23-.03.45-.05.63-.09.62-.12,1.2-.29,1.73-.55.54-.26,1.04-.59,1.5-1.02.35-.33.6-.72.73-1.15.13-.43.15-.89.04-1.36-.11-.47-.33-.88-.63-1.21-.3-.33-.7-.57-1.16-.71-.27-.08-.55-.17-.82-.27Z"/>
    </g>
  </g>
</svg>