<?xml version="1.0" encoding="UTF-8"?>
<svg id="Layer_2" data-name="Layer 2" xmlns="http://www.w3.org/2000/svg" viewBox="0 0 60.46 81.54">
  <defs>
    <style>
      .cls-1 {
        fill: #252524;
      }

      .cls-1, .cls-2, .cls-3, .cls-4, .cls-5, .cls-6 {
        fill-rule: evenodd;
      }

      .cls-1, .cls-2, .cls-3, .cls-4, .cls-6 {
        stroke-width: 0px;
      }

      .cls-2 {
        fill: #2e2e2d;
      }

      .cls-3 {
        fill: #424241;
      }

      .cls-4 {
        fill: #343434;
      }

      .cls-5 {
        stroke: #000;
        stroke-miterlimit: 10;
        stroke-width: 4px;
      }

      .cls-6 {
        fill: #50504f;
      }
    </style>
  </defs>
  <g id="OBJECTS">
    <path class="cls-5" d="m58.38,22.85c.1-2.65.13-5.14-.02-7.24l-.04-.56c-.44-.39-.46-.56-2.31-.28-.33.05-.62.07-.89.07-.2-.68-.39-1.25-.56-1.49-.08-.11-.15-.22-.23-.33.49-.5,1.12-1.02,1.92-1.35-.48-.72-1.18-4.44-1.7-5.19-1.58-2.29-3.15-4.43-3.57-4.47-.91-.09-4.31.75-12.97.49-8.38-.25-20.61.14-23.34.3-4.17.25-4.86-2.19-8.21,3.04-.21.33-.92,3.48-1.41,5.78.47.32,1.02.65,1.49.97-.03.04-.05.07-.08.11-.1.15-.3.89-.53,1.87-.12.01-.22.03-.35.04-1.41.14-.97.06-1.36.07-.56.69-1.7,1.6-2.02,4.63-.36,3.42-.23,8.28.11,13.44.48,12.35,2.18,37.88,5.22,42.82,2.13,3.46,6.18,1.88,9.31,1.56,5.69-.57,7.1,3.29,12.49,2.21,1.81-.36,12.42-3.75,12.51-3.71,2.54-.23,5.35-.53,8.54-.93,2.31-.29,2.11-1.07,4.14-4.01,4.41-6.36,3.67-2.32,2.51-10.15,1.24-1.48.99-1.27.38-4.6-.02-.12-.04-.24-.07-.37-.02-.08-.03-.17-.05-.26-.02-.11-.04-.23-.06-.35-.09-.56-.19-1.21-.3-1.94-.04-.27-.07-.54-.11-.83-.02-.12-.03-.24-.05-.37.2-.92.45-1.81.64-2.86-.37-.19.24-2.03.35-4.32,0-6.79.95-15.79.59-21.79Z"/>
    <g>
      <path class="cls-1" d="m14.7,9.66c-4.17.25-4.86-2.19-8.21,3.04-.21.33-.92,3.48-1.41,5.78,1.78,1.19,4.61,2.59.53,3-1.41.14-.97.06-1.36.07-.56.69-1.7,1.6-2.02,4.63-.27,2.6,1.43,43.04,5.33,49.4,2.13,3.46,6.18,1.88,9.31,1.56,5.69-.57,7.1,3.29,12.49,2.21,1.81-.36,12.42-3.75,12.51-3.71,2.54-.23,5.35-.53,8.54-.93,2.31-.29,2.11-1.07,4.14-4.01,5.06-7.3,3.34-.89,1.99-14.46-.31-3.17.44-4.79.92-7.28-.37-.19.24-2.03.35-4.32,0-6.93.99-16.17.57-22.16l-.04-.56c-.44-.39-.46-.56-2.31-.28-1.85.27-2.77-.27-2.77-.27,0,0,1.02-2.01,3.03-2.83-.48-.72-1.18-4.44-1.7-5.19-1.58-2.29-3.15-4.43-3.57-4.47-.91-.09-4.31.75-12.97.49-8.38-.26-20.61.13-23.34.3Z"/>
      <path class="cls-4" d="m14.7,2.79c-4.17.25-4.86-2.19-8.21,3.04-.21.33-.92,3.48-1.41,5.78,1.78,1.19,4.61,2.59.53,3-1.41.14-.97.06-1.36.07-.56.69-1.7,1.6-2.02,4.63-.9,8.54,1.21,26.01,2.34,34.9.09.07,4.63,1.43,2.6,2.65-1.61.97-1.46,1.82-1.99,2.18v.11c.26,2.22-1.31,3.55,2.37,9.55,2.13,3.46,6.18,1.87,9.31,1.56,5.69-.57,7.1,3.29,12.49,2.21,1.81-.36,12.42-3.75,12.51-3.71,2.54-.23,5.35-.52,8.54-.93,2.31-.29,2.11-1.07,4.14-4.01,5.06-7.3,3.34-.89,1.99-14.46-.31-3.17.44-4.79.92-7.28-.53-.27-.71-.21-2.31-.95-3.88-1.79,1.59-2.76,2.66-3.38,0-6.93.99-16.17.57-22.16l-.04-.56c-.44-.39-.46-.56-2.31-.28-1.85.27-2.77-.27-2.77-.27,0,0,1.02-2.01,3.03-2.83-.48-.72-1.18-4.44-1.7-5.19-1.58-2.29-3.15-4.43-3.57-4.47-.91-.09-4.31.75-12.97.49-8.38-.25-20.61.14-23.34.3Z"/>
      <path class="cls-3" d="m55.28,27.95c.18-3.33.41-6.87.32-10.25-1.29.07-2.74-.1-3.81-.73-1.31-.78-1.79-2.43-1.1-3.78.5-.98,1.26-1.93,2.15-2.71-.06-.24-.12-.46-.18-.67-.14-.52-.32-1.32-.54-1.83-.55-.8-1.11-1.6-1.69-2.37-.14-.18-.31-.42-.48-.64-.05,0-.1.01-.15.02-.84.09-1.68.17-2.52.24-3.1.23-6.22.25-9.32.15-2.59-.08-5.19-.09-7.79-.08-3.15.02-6.31.07-9.46.16-1.94.05-3.89.1-5.83.22-1.11.07-2.14-.01-3.23-.19-.25-.04-.82-.16-1.1-.16-.4.27-1.11,1.29-1.47,1.84-.3.92-.54,2.15-.75,3.13.24.17.47.34.69.52,1.02.86,1.74,2.03,1.55,3.43-.33,2.38-2.65,3.04-4.66,3.24-.06,0-.13.01-.19.02-.35.53-.49,1-.61,2.12-.26,2.5-.23,5.16-.15,7.68.1,3.22.33,6.45.61,9.67.24,2.78.53,5.56.84,8.33,19.32-.89,36.97-6.17,48.88-17.34Z"/>
      <g>
        <path class="cls-6" d="m4.94,27.09c1.68-.51,3.67-1.25,6.32-3.07,2.72-1.88,2.69-6.22,3.95-9.63,1.71-4.62,3.61-7.24,5.62-8.94.38,0,.77-.02,1.15-.03-2.1,1.44-3.92,3.47-5.2,7.1-.52,1.48-3.4,10.96-4.05,11.63-1.69,1.73-4.73,2.5-7.77,3.57,0-.14-.01-.29-.02-.43v-.2Z"/>
        <path class="cls-6" d="m5.64,37.84c6.67-5.41,10.13-3.6,13.36-18.24,1.76-7.95,3.83-11.05,7.64-14.27.33,0,.66,0,.99-.01-2.39,2.19-4.56,4.96-6.28,9.06-3.09,7.37-1.42,14.74-9.65,20.11-2.58,1.68-4.15,2.69-5.99,4.2-.03-.28-.05-.56-.08-.85Z"/>
      </g>
      <g>
        <path class="cls-2" d="m33.68,71.26c.96-3.4,2.72-3.63,4.72-3.9,1.7-.23,3.6-.48,5.25-3.41.7-1.24,1.15-2.26,1.52-3.08l.02-.04c1.29-2.88,1.57-3.45,6.96-3.51,3.38-.04,3.65-.2,5.08-2.6.08.5.16.94.23,1.33-1.25,1.97-1.88,2.13-5.3,2.16-4.82.05-5.06.53-6.16,2.98v.04c-.38.82-.84,1.85-1.57,3.15-1.87,3.32-4,3.61-5.91,3.86-1.54.2-2.91.39-3.77,2.69-.36.11-.72.22-1.06.32Z"/>
        <path class="cls-2" d="m26.84,72.64c.46-.91.85-1.68.98-1.97,4.6-10.44,10.77-1.79,13.9-11.07,2.84-8.42,9.44-2.89,14.09-6.7.35-.29.69-.59,1.02-.91.05.43.11.83.16,1.21-1.64,1.28-3.47,2.11-5.47,2.09-13.87-.16-4.83,7.85-14.66,9.96-7.64,1.64-6.98,2.82-8.96,7.42-.37.02-.73,0-1.06-.02Z"/>
      </g>
      <path class="cls-6" d="m50.26,64.68c.09-.12.18-.28.26-.41l.08-.13c.23-.37.45-.73.66-1.06.22-.35.45-.69.69-1.05.35-.5.71-1,1.08-1.5.37-.49.75-.98,1.14-1.46.09-.11.18-.21.28-.33.09-.11.19-.21.28-.32-.06-.35-.14-.72-.22-1.07-.06-.28-.12-.54-.16-.76-.21-1.15-.39-2.3-.55-3.45-.16-1.15-.29-2.31-.4-3.47-.1-1.01-.11-1.94-.05-2.87.07-.92.21-1.84.43-2.82-.97-.45-1.89-1.08-2.49-1.92-.51-.71-.78-1.57-.66-2.59.14-1.12.7-1.95,1.47-2.57.74-.6,1.66-1.02,2.56-1.35.05-2.26.17-4.52.29-6.76l.03-.64c.03-.5.05-1.01.08-1.52.16-2.85.32-5.81.25-8.66-.63.02-1.29-.02-1.91-.14-.64-.12-1.25-.33-1.77-.64-.72-.42-1.21-1.09-1.42-1.83-.22-.74-.16-1.57.22-2.31.25-.5.58-1,.95-1.47.34-.43.72-.84,1.14-1.21l-.14-.51-.1-.38c-.12-.46-.26-1-.41-1.38-.27-.39-.54-.78-.82-1.17-.28-.4-.57-.79-.85-1.17h0l-.13-.18c-.08-.11-.17-.23-.26-.34h0c-.41.04-.82.09-1.26.13-.44.04-.86.08-1.27.11-1.55.12-3.11.18-4.67.2-1.56.02-3.12,0-4.67-.05-1.3-.04-2.59-.06-3.89-.07-1.3-.01-2.59-.01-3.89,0-1.57,0-3.15.03-4.73.05-1.57.03-3.15.06-4.73.11h-.45c-1.78.06-3.58.11-5.37.22-.57.03-1.11.03-1.65,0-.54-.03-1.08-.1-1.63-.19-.06,0-.14-.03-.24-.04-.23-.04-.54-.1-.74-.11-.13.11-.3.3-.47.52-.31.38-.63.85-.84,1.17-.24.75-.44,1.7-.62,2.54l-.07.35c.07.05.15.11.21.16.12.09.23.18.35.28.57.48,1.06,1.06,1.35,1.72.27.59.38,1.24.29,1.95-.18,1.29-.89,2.11-1.84,2.64-.91.51-2.03.73-3.07.83h-.06c-.12.21-.22.41-.29.66-.09.31-.15.69-.21,1.23-.13,1.25-.19,2.53-.2,3.81-.01,1.29.01,2.58.05,3.83.05,1.6.13,3.21.24,4.83.1,1.59.23,3.21.37,4.82.22,2.55.48,5.08.76,7.6.27,2.46.57,4.95.88,7.44l.22.11c.79.39,1.56.88,2.14,1.53.59.66.99,1.47,1.02,2.48.02.73-.17,1.39-.51,1.97-.36.61-.9,1.12-1.54,1.51-.05.03-.12.08-.19.13-.06.04-.11.08-.12.11l-.1.16v.14c0,.08-.01.15-.02.22-.01.22-.04.44-.06.66-.06.56-.11,1.1-.02,1.67.12.72.42,1.5.78,2.26.37.77.8,1.51,1.19,2.14.09.14.18.26.29.36.1.09.22.16.36.21.83.28,2.7-.03,4.18-.28.58-.1,1.09-.18,1.48-.22,3.41-.34,5.26.43,8.13,1.63l.37.16c.67.28,1.24.47,1.81.55.57.08,1.16.06,1.87-.08.53-.11,1.13-.29,1.69-.45.1-.03.21-.06.43-.13.57-.17,1.2-.36,1.86-.56.76-.23,1.34-.4,1.86-.56.8-.24,1.79-.55,2.78-.86l1.64-.51c.49-.15.97-.3,1.39-.42l.23-.07.24-.07c.13-.04.25-.06.36-.09.12-.02.24-.04.36-.05h.01c1.39-.12,2.79-.27,4.21-.42,1.43-.16,2.83-.32,4.21-.49h0s.02,0,.02,0c.07,0,.15-.02.23-.03h0Zm.72-.13c-.1.17-.23.38-.35.53-.04.05-.09.08-.16.1-.13.03-.28.05-.38.06h-.02s0,0,0,0c-1.43.18-2.83.35-4.22.5-1.38.15-2.79.29-4.22.42h0c-.1,0-.2.03-.31.05-.11.02-.22.05-.32.08l-.23.07-.23.07c-.51.15-.95.29-1.38.42l-1.64.51c-.86.27-1.73.53-2.78.86-.72.22-1.38.42-1.86.57-.58.17-1.2.36-1.87.55l-.43.13c-.57.17-1.17.35-1.74.46-.78.16-1.42.18-2.05.09-.63-.09-1.23-.29-1.94-.59l-.37-.16c-2.8-1.17-4.6-1.92-7.87-1.59-.36.04-.87.12-1.44.22-1.53.25-3.48.58-4.44.26-.22-.08-.4-.19-.55-.33-.15-.13-.27-.3-.38-.48-.39-.63-.83-1.39-1.21-2.19-.38-.8-.7-1.64-.83-2.41-.1-.64-.05-1.22.02-1.81.02-.21.04-.42.06-.64,0-.08,0-.14.01-.2v-.2s.02-.09.04-.13l.07-.12.08-.12c.06-.09.16-.18.26-.25.08-.06.18-.12.24-.16.57-.34,1.04-.79,1.35-1.32.29-.49.45-1.06.44-1.68-.02-.86-.37-1.56-.88-2.13-.53-.59-1.24-1.04-1.98-1.41l-.17-.08-.15-.07c-.09-.03-.16-.12-.18-.22-.32-2.51-.62-5.04-.9-7.6-.28-2.54-.54-5.08-.76-7.61-.14-1.6-.27-3.21-.37-4.84-.1-1.61-.19-3.22-.24-4.85-.04-1.26-.07-2.55-.05-3.85.02-1.3.07-2.6.21-3.86.06-.58.13-.99.22-1.33.1-.35.23-.62.42-.91.04-.07.12-.12.2-.13l.19-.02c.98-.1,2.02-.3,2.86-.77.8-.45,1.41-1.15,1.56-2.24.08-.6-.02-1.15-.24-1.66-.26-.58-.69-1.09-1.21-1.53-.11-.09-.22-.18-.33-.26-.12-.09-.22-.17-.33-.24-.1-.06-.15-.17-.12-.29l.11-.53c.18-.88.39-1.86.65-2.63,0-.02.02-.04.03-.06.22-.33.56-.83.89-1.24.24-.29.47-.55.66-.67.04-.03.09-.05.15-.05.24,0,.63.07.92.12.09.02.16.03.23.04.53.09,1.06.15,1.58.18.52.03,1.05.04,1.59,0,1.78-.11,3.59-.16,5.39-.21h.45c1.57-.06,3.15-.09,4.73-.12,1.58-.03,3.16-.04,4.73-.05,1.3,0,2.6,0,3.9,0,1.3.01,2.6.04,3.9.07,1.55.05,3.1.07,4.65.05,1.54-.02,3.09-.08,4.64-.2.44-.03.86-.07,1.26-.11.4-.04.82-.08,1.25-.13l.15-.02c.09,0,.18.03.24.1.13.17.25.33.36.47l.13.18h0c.3.4.58.79.86,1.18.28.39.56.79.84,1.2.01.02.02.03.03.05.17.41.32,1,.45,1.48.03.1.05.19.1.38l.18.67c.02.1,0,.2-.08.27-.44.38-.84.8-1.2,1.25-.35.44-.65.91-.89,1.38-.31.61-.36,1.3-.18,1.91.18.62.58,1.17,1.18,1.52.47.28,1.02.46,1.6.57.68.13,1.39.16,2.06.12h0c.15,0,.27.11.28.26.08,2.96-.09,6.03-.25,8.98-.03.51-.06,1.02-.08,1.52l-.03.65c-.12,2.31-.24,4.62-.29,6.92,0,.11-.07.22-.18.26-.05.02-.1.04-.15.05-.85.31-1.73.7-2.42,1.26-.67.54-1.16,1.25-1.28,2.22-.11.87.13,1.6.56,2.21.54.77,1.41,1.34,2.31,1.76l.15.07c.12.05.19.18.16.31l-.05.21c-.22.95-.36,1.84-.42,2.74-.06.9-.05,1.8.05,2.77.11,1.15.25,2.3.4,3.45.15,1.15.33,2.29.54,3.43.04.22.1.47.16.74.09.41.19.85.25,1.22,0,.07,0,.15-.06.21-.11.14-.24.29-.36.43-.1.11-.2.22-.27.32-.39.47-.76.95-1.13,1.44-.36.48-.72.98-1.07,1.48-.23.34-.46.68-.68,1.03-.24.37-.45.71-.66,1.05l-.08.13Z"/>
    </g>
  </g>
</svg>